<svg width="22" height="28" viewBox="0 0 22 28" fill="none" xmlns="http://www.w3.org/2000/svg">
<path d="M0.333252 23.3334V20.6667H2.99992V11.3334C2.99992 9.48897 3.55547 7.85008 4.66659 6.41675C5.7777 4.98341 7.22214 4.04453 8.99992 3.60008V2.66675C8.99992 2.11119 9.19436 1.63897 9.58325 1.25008C9.97214 0.861192 10.4444 0.666748 10.9999 0.666748C11.5555 0.666748 12.0277 0.861192 12.4166 1.25008C12.8055 1.63897 12.9999 2.11119 12.9999 2.66675V3.60008C14.7777 4.04453 16.2221 4.98341 17.3333 6.41675C18.4444 7.85008 18.9999 9.48897 18.9999 11.3334V20.6667H21.6666V23.3334H0.333252ZM10.9999 27.3334C10.2666 27.3334 9.63881 27.0723 9.11659 26.5501C8.59436 26.0279 8.33325 25.4001 8.33325 24.6667H13.6666C13.6666 25.4001 13.4055 26.0279 12.8833 26.5501C12.361 27.0723 11.7333 27.3334 10.9999 27.3334ZM5.66659 20.6667H16.3333V11.3334C16.3333 9.86675 15.811 8.61119 14.7666 7.56675C13.7221 6.5223 12.4666 6.00008 10.9999 6.00008C9.53325 6.00008 8.2777 6.5223 7.23325 7.56675C6.18881 8.61119 5.66659 9.86675 5.66659 11.3334V20.6667Z" fill="#1C1B1F"/>
</svg>
