<svg width="16" height="17" viewBox="0 0 16 17" fill="none" xmlns="http://www.w3.org/2000/svg">
<path d="M14.9333 16.9834L9.17038 11.2204C8.72593 11.5957 8.21008 11.8896 7.62282 12.1019C7.03558 12.3143 6.41069 12.4204 5.74816 12.4204C4.14162 12.4204 2.78196 11.8637 1.66918 10.7501C0.556393 9.6365 0 8.28712 0 6.70193C0 5.11675 0.556793 3.76736 1.67038 2.65378C2.78395 1.54019 4.1358 0.983398 5.72593 0.983398C7.31605 0.983398 8.66543 1.54019 9.77407 2.65378C10.8827 3.76736 11.437 5.11749 11.437 6.70415C11.437 7.34464 11.3333 7.95872 11.1259 8.54638C10.9185 9.13402 10.6173 9.67476 10.2222 10.1686L16 15.9168L14.9333 16.9834ZM5.73333 10.939C6.90618 10.939 7.90309 10.5254 8.72407 9.69822C9.54506 8.87107 9.95556 7.8723 9.95556 6.70193C9.95556 5.53155 9.54506 4.53278 8.72407 3.70562C7.90309 2.87847 6.90618 2.46489 5.73333 2.46489C4.55227 2.46489 3.54836 2.87847 2.7216 3.70562C1.89484 4.53278 1.48147 5.53155 1.48147 6.70193C1.48147 7.8723 1.89484 8.87107 2.7216 9.69822C3.54836 10.5254 4.55227 10.939 5.73333 10.939Z" fill="#333333"/>
</svg>
