<svg width="24" height="24" viewBox="0 0 24 24" fill="none" xmlns="http://www.w3.org/2000/svg">
<mask id="mask0_694_977" style="mask-type:alpha" maskUnits="userSpaceOnUse" x="0" y="0" width="24" height="24">
<rect width="24" height="24" fill="#D9D9D9"/>
</mask>
<g mask="url(#mask0_694_977)">
<path d="M15.9002 12.5749L13.5502 10.4249C11.9835 8.9749 11.0335 7.90407 10.7002 7.2124C10.3669 6.52074 10.2002 5.93324 10.2002 5.4499C10.2002 4.58324 10.496 3.85824 11.0877 3.2749C11.6794 2.69157 12.4252 2.3999 13.3252 2.3999C13.8282 2.3999 14.2998 2.50824 14.74 2.7249C15.1801 2.94157 15.5669 3.23324 15.9002 3.5999C16.2169 3.21657 16.6002 2.92074 17.0502 2.7124C17.5002 2.50407 17.9772 2.3999 18.4813 2.3999C19.3477 2.3999 20.0841 2.70372 20.6905 3.31135C21.297 3.919 21.6002 4.65685 21.6002 5.5249C21.6002 6.00824 21.4419 6.59157 21.1252 7.2749C20.8085 7.95824 19.8669 9.00824 18.3002 10.4249L15.9002 12.5749ZM15.9002 10.1499L17.0752 9.1249C18.1085 8.2249 18.821 7.48324 19.2127 6.8999C19.6044 6.31657 19.8002 5.85824 19.8002 5.5249C19.8002 5.15119 19.6728 4.83692 19.418 4.5821C19.1632 4.3273 18.8489 4.1999 18.4752 4.1999C18.2419 4.1999 18.021 4.24574 17.8127 4.3374C17.6044 4.42907 17.4252 4.56657 17.2752 4.7499L15.9002 6.3499L14.5252 4.7499C14.3752 4.56657 14.196 4.42907 13.9877 4.3374C13.7794 4.24574 13.5585 4.1999 13.3252 4.1999C12.9585 4.1999 12.646 4.3273 12.3877 4.5821C12.1294 4.83692 12.0002 5.15119 12.0002 5.5249C12.0002 5.75824 12.1544 6.12907 12.4627 6.6374C12.771 7.14574 13.5502 7.9749 14.8002 9.1249L15.9002 10.1499ZM7.2002 18.2999L13.8002 20.3249L19.6752 18.5249C19.5419 18.1749 19.322 17.8999 19.0155 17.6999C18.7091 17.4999 18.3623 17.3999 17.9752 17.3999H12.7002C12.4169 17.3999 12.1335 17.3791 11.8502 17.3374C11.5669 17.2957 11.2919 17.2249 11.0252 17.1249L9.3252 16.4749L9.8752 14.7499L11.6252 15.3999C11.8085 15.4666 11.9877 15.5166 12.1627 15.5499C12.3377 15.5832 12.5169 15.5999 12.7002 15.5999H15.0002C15.0002 15.4332 14.9585 15.2916 14.8752 15.1749C14.7919 15.0582 14.6669 14.9666 14.5002 14.8999L8.1002 12.5999H7.2002V18.2999ZM1.2002 21.5999V10.7999H8.0502C8.18353 10.7999 8.30853 10.8124 8.4252 10.8374C8.54186 10.8624 8.65476 10.8925 8.7639 10.9277L15.1752 13.2249C15.6752 13.4082 16.071 13.7187 16.3627 14.1562C16.6544 14.5937 16.8002 15.0749 16.8002 15.5999H17.9752C18.9821 15.5999 19.838 15.9499 20.5429 16.6499C21.2478 17.3499 21.6002 18.1999 21.6002 19.1999V19.7999L13.8252 22.1999L7.2002 20.1749V21.5999H1.2002ZM3.0002 19.7999H5.4002V12.5999H3.0002V19.7999Z" fill="#0A0A0A"/>
</g>
</svg>
