<svg width="24" height="24" viewBox="0 0 24 24" fill="none" xmlns="http://www.w3.org/2000/svg">
<mask id="mask0_688_37" style="mask-type:alpha" maskUnits="userSpaceOnUse" x="0" y="0" width="24" height="24">
<rect width="24" height="24" fill="#D9D9D9"/>
</mask>
<g mask="url(#mask0_688_37)">
<path d="M4 17V5H2V3H6V15H21V17H4ZM6 22C5.45 22 4.97917 21.8042 4.5875 21.4125C4.19583 21.0208 4 20.55 4 20C4 19.45 4.19583 18.9792 4.5875 18.5875C4.97917 18.1958 5.45 18 6 18C6.55 18 7.02083 18.1958 7.4125 18.5875C7.80417 18.9792 8 19.45 8 20C8 20.55 7.80417 21.0208 7.4125 21.4125C7.02083 21.8042 6.55 22 6 22ZM7 14V8H13V14H7ZM9 12H11V10H9V12ZM14 14V8H20V14H14ZM16 12H18V10H16V12ZM19 22C18.45 22 17.9792 21.8042 17.5875 21.4125C17.1958 21.0208 17 20.55 17 20C17 19.45 17.1958 18.9792 17.5875 18.5875C17.9792 18.1958 18.45 18 19 18C19.55 18 20.0208 18.1958 20.4125 18.5875C20.8042 18.9792 21 19.45 21 20C21 20.55 20.8042 21.0208 20.4125 21.4125C20.0208 21.8042 19.55 22 19 22Z" fill="#333333"/>
</g>
</svg>
