<svg width="24" height="24" viewBox="0 0 24 24" fill="none" xmlns="http://www.w3.org/2000/svg">
<mask id="mask0_691_892" style="mask-type:alpha" maskUnits="userSpaceOnUse" x="0" y="0" width="24" height="24">
<rect width="24" height="24" fill="#D9D9D9"/>
</mask>
<g mask="url(#mask0_691_892)">
<path d="M17 15C16.3 15 15.7083 14.7583 15.225 14.275C14.7417 13.7917 14.5 13.2 14.5 12.5C14.5 11.8 14.7417 11.2083 15.225 10.725C15.7083 10.2417 16.3 10 17 10C17.7 10 18.2917 10.2417 18.775 10.725C19.2583 11.2083 19.5 11.8 19.5 12.5C19.5 13.2 19.2583 13.7917 18.775 14.275C18.2917 14.7583 17.7 15 17 15ZM12 20V18.6C12 18.2 12.1042 17.8292 12.3125 17.4875C12.5208 17.1458 12.8167 16.9 13.2 16.75C13.8 16.5 14.4208 16.3125 15.0625 16.1875C15.7042 16.0625 16.35 16 17 16C17.65 16 18.2958 16.0625 18.9375 16.1875C19.5792 16.3125 20.2 16.5 20.8 16.75C21.1833 16.9 21.4792 17.1458 21.6875 17.4875C21.8958 17.8292 22 18.2 22 18.6V20H12ZM10 12C8.9 12 7.95833 11.6083 7.175 10.825C6.39167 10.0417 6 9.1 6 8C6 6.9 6.39167 5.95833 7.175 5.175C7.95833 4.39167 8.9 4 10 4C11.1 4 12.0417 4.39167 12.825 5.175C13.6083 5.95833 14 6.9 14 8C14 9.1 13.6083 10.0417 12.825 10.825C12.0417 11.6083 11.1 12 10 12ZM2 20V17.2C2 16.6333 2.14167 16.1125 2.425 15.6375C2.70833 15.1625 3.1 14.8 3.6 14.55C4.6 14.05 5.6375 13.6667 6.7125 13.4C7.7875 13.1333 8.88333 13 10 13C10.5833 13 11.1667 13.05 11.75 13.15C12.3333 13.25 12.9167 13.3667 13.5 13.5L11.8 15.2C11.5 15.1167 11.2 15.0625 10.9 15.0375C10.6 15.0125 10.3 15 10 15C9.03333 15 8.0875 15.1167 7.1625 15.35C6.2375 15.5833 5.35 15.9167 4.5 16.35C4.33333 16.4333 4.20833 16.55 4.125 16.7C4.04167 16.85 4 17.0167 4 17.2V18H10V20H2ZM10 10C10.55 10 11.0208 9.80417 11.4125 9.4125C11.8042 9.02083 12 8.55 12 8C12 7.45 11.8042 6.97917 11.4125 6.5875C11.0208 6.19583 10.55 6 10 6C9.45 6 8.97917 6.19583 8.5875 6.5875C8.19583 6.97917 8 7.45 8 8C8 8.55 8.19583 9.02083 8.5875 9.4125C8.97917 9.80417 9.45 10 10 10Z" fill="#1C1B1F"/>
</g>
</svg>
