<svg width="24" height="24" viewBox="0 0 24 24" fill="none" xmlns="http://www.w3.org/2000/svg">
<mask id="mask0_691_904" style="mask-type:alpha" maskUnits="userSpaceOnUse" x="0" y="0" width="24" height="24">
<rect width="24" height="24" fill="#D9D9D9"/>
</mask>
<g mask="url(#mask0_691_904)">
<path d="M12 22C10.6167 22 9.31667 21.7375 8.1 21.2125C6.88333 20.6875 5.825 19.975 4.925 19.075C4.025 18.175 3.3125 17.1167 2.7875 15.9C2.2625 14.6833 2 13.3833 2 12C2 10.6167 2.2625 9.31667 2.7875 8.1C3.3125 6.88333 4.025 5.825 4.925 4.925C5.825 4.025 6.88333 3.3125 8.1 2.7875C9.31667 2.2625 10.6167 2 12 2C13.3833 2 14.6833 2.2625 15.9 2.7875C17.1167 3.3125 18.175 4.025 19.075 4.925C19.975 5.825 20.6875 6.88333 21.2125 8.1C21.7375 9.31667 22 10.6167 22 12C22 12.45 21.975 12.8917 21.925 13.325C21.875 13.7583 21.7917 14.1833 21.675 14.6C21.4417 14.3333 21.1708 14.1083 20.8625 13.925C20.5542 13.7417 20.2167 13.6167 19.85 13.55C19.9 13.3 19.9375 13.0458 19.9625 12.7875C19.9875 12.5292 20 12.2667 20 12C20 9.76667 19.225 7.875 17.675 6.325C16.125 4.775 14.2333 4 12 4C9.76667 4 7.875 4.775 6.325 6.325C4.775 7.875 4 9.76667 4 12C4 14.2333 4.775 16.125 6.325 17.675C7.875 19.225 9.76667 20 12 20C12.85 20 13.6625 19.875 14.4375 19.625C15.2125 19.375 15.925 19.025 16.575 18.575C16.775 18.8583 17.0208 19.1083 17.3125 19.325C17.6042 19.5417 17.9167 19.7083 18.25 19.825C17.4 20.5083 16.4458 21.0417 15.3875 21.425C14.3292 21.8083 13.2 22 12 22ZM19.25 18C18.9 18 18.6042 17.8792 18.3625 17.6375C18.1208 17.3958 18 17.1 18 16.75C18 16.4 18.1208 16.1042 18.3625 15.8625C18.6042 15.6208 18.9 15.5 19.25 15.5C19.6 15.5 19.8958 15.6208 20.1375 15.8625C20.3792 16.1042 20.5 16.4 20.5 16.75C20.5 17.1 20.3792 17.3958 20.1375 17.6375C19.8958 17.8792 19.6 18 19.25 18ZM15.3 16.7L11 12.4V7H13V11.6L16.7 15.3L15.3 16.7Z" fill="#1C1B1F"/>
</g>
</svg>
